Jump_normalized_pl08_filtered_grf
version=1
nRows=25
nColumns=37
inDegrees=yes
endheader
time		1_ground_force_vx		1_ground_force_vy		1_ground_force_vz		1_ground_force_px		1_ground_force_py		1_ground_force_pz		1_ground_torque_x		1_ground_torque_y		1_ground_torque_z		2_ground_force_vx		2_ground_force_vy		2_ground_force_vz		2_ground_force_px		2_ground_force_py		2_ground_force_pz		2_ground_torque_x		2_ground_torque_y		2_ground_torque_z		3_ground_force_vx		3_ground_force_vy		3_ground_force_vz		3_ground_force_px		3_ground_force_py		3_ground_force_pz		3_ground_torque_x		3_ground_torque_y		3_ground_torque_z		4_ground_force_vx		4_ground_force_vy		4_ground_force_vz		4_ground_force_px		4_ground_force_py		4_ground_force_pz		4_ground_torque_x		4_ground_torque_y		4_ground_torque_z		
0.004500		-0.000000		0.000000		0.000000		0.144966		0.000000		0.187903		0.000000		0.000000		-0.000000		-0.000000		-0.000000		-0.000000		-0.143518		0.000000		0.238076		-0.000000		0.000000		-0.000000		-3.932046		290.155031		209.504193		0.375673		1.309472		1.914304		-1.547898		16.021397		-45.129286		-1.230709		380.442041		257.740964		-0.265930		1.309005		1.926201		1.232267		-18.046328		59.573560		
0.006924		0.000000		-0.000000		-0.000000		0.144966		0.000000		0.187903		-0.000000		-0.000000		0.000000		-0.000000		-0.000000		-0.000000		-0.143518		0.000000		0.238076		-0.000000		0.000000		-0.000000		-6.717237		291.369463		212.446788		0.375409		1.309348		1.914493		-1.254692		16.454876		-45.423912		-1.088659		382.863071		259.152529		-0.265953		1.309002		1.926233		1.164744		-18.097485		59.901433		
0.009348		0.000000		-0.000000		-0.000000		0.144966		0.000000		0.187903		-0.000000		-0.000000		0.000000		-0.000000		-0.000000		-0.000000		-0.143518		0.000000		0.238076		-0.000000		0.000000		-0.000000		-9.165764		292.864096		215.486126		0.375187		1.309246		1.914651		-1.000414		16.875032		-45.748289		-0.818023		385.458098		260.555063		-0.265975		1.309000		1.926264		1.100149		-18.151692		60.260424		
0.011773		0.000000		-0.000000		-0.000000		0.144966		0.000000		0.187903		-0.000000		-0.000000		0.000000		-0.000000		-0.000000		-0.000000		-0.143518		0.000000		0.238076		-0.000000		0.000000		-0.000000		-11.175332		294.647745		218.555572		0.375020		1.309172		1.914769		-0.800161		17.270205		-46.101142		-0.461805		388.196429		261.946872		-0.265996		1.308996		1.926295		1.040445		-18.210376		60.646885		
0.014197		0.000000		-0.000000		-0.000000		0.144966		0.000000		0.187903		-0.000000		-0.000000		0.000000		0.000000		-0.000000		-0.000000		-0.143518		0.000000		0.238076		-0.000000		0.000000		-0.000000		-12.730194		296.707205		221.617041		0.374909		1.309126		1.914847		-0.657142		17.637066		-46.481222		-0.075860		391.058054		263.350993		-0.266015		1.308993		1.926326		0.986595		-18.276811		61.058584		
0.016621		0.000000		-0.000000		-0.000000		0.144966		0.000000		0.187903		-0.000000		-0.000000		0.000000		0.000000		-0.000000		-0.000000		-0.143518		0.000000		0.238076		-0.000000		0.000000		-0.000000		-13.888108		299.009829		224.658121		0.374848		1.309104		1.914889		-0.564348		17.979525		-46.886924		0.283802		394.031871		264.809514		-0.266031		1.308987		1.926355		0.938680		-18.355847		61.494856		
0.019045		0.000000		-0.000000		-0.000000		0.144966		0.000000		0.187903		-0.000000		-0.000000		0.000000		0.000000		-0.000000		-0.000000		-0.143518		0.000000		0.238076		0.000000		0.000000		0.000000		-14.754177		301.510693		227.685556		0.374825		1.309098		1.914904		-0.508268		18.306214		-47.316292		0.571359		397.112550		266.376154		-0.266043		1.308978		1.926383		0.896116		-18.453213		61.956434		
0.021470		-0.000000		-0.000000		-0.000000		0.144966		0.000000		0.187903		-0.000000		-0.000000		0.000000		0.000000		0.000000		0.000000		-0.143518		0.000000		0.238076		0.000000		-0.000000		0.000000		-15.449629		304.161721		230.717353		0.374827		1.309098		1.914903		-0.473269		18.627520		-47.767313		0.757068		400.297233		268.108465		-0.266052		1.308965		1.926408		0.857922		-18.574660		62.445065		
0.023894		-0.000000		0.000000		0.000000		0.144966		0.000000		0.187903		0.000000		0.000000		-0.000000		0.000000		0.000000		0.000000		-0.143518		0.000000		0.238076		0.000000		-0.000000		0.000000		-16.083739		306.919985		233.775233		0.374839		1.309096		1.914897		-0.445442		18.952949		-48.238179		0.829478		403.581722		270.058725		-0.266056		1.308951		1.926432		0.822974		-18.725002		62.962709		
0.026318		-0.000000		0.000000		0.000000		0.144966		0.000000		0.187903		0.000000		0.000000		-0.000000		0.000000		0.000000		0.000000		-0.143518		0.000000		0.238076		0.000000		-0.000000		0.000000		-16.733744		309.754725		236.879745		0.374852		1.309089		1.914894		-0.415121		19.289312		-48.727483		0.793473		406.957368		272.264603		-0.266058		1.308933		1.926455		0.790263		-18.907352		63.510560		
0.028742		-0.000000		0.000000		0.000000		0.144966		0.000000		0.187903		0.000000		0.000000		-0.000000		0.000000		0.000000		0.000000		-0.143518		0.000000		0.238076		0.000000		-0.000000		0.000000		-17.437535		312.651847		240.047910		0.374860		1.309073		1.914899		0.635269		-11.390265		-8.745220		0.663766		410.410293		274.745629		-0.266058		1.308915		1.926478		0.759179		-19.123213		64.088568		
0.031167		-0.000000		0.000000		0.000000		0.144966		0.000000		0.187903		0.000000		0.000000		-0.000000		-0.000000		0.000000		0.000000		-0.143518		0.000000		0.238076		0.000000		-0.000000		0.000000		-18.197768		315.612774		243.291833		0.374860		1.309050		1.914915		0.661643		-11.475207		-8.845725		0.458592		413.920007		277.500191		-0.266058		1.308897		1.926503		0.729671		-19.372583		64.694819		
0.033591		-0.000000		0.000000		0.000000		0.144966		0.000000		0.187903		0.000000		0.000000		-0.000000		-0.000000		0.000000		0.000000		-0.143518		0.000000		0.238076		0.000000		-0.000000		0.000000		-18.992215		318.649511		246.619059		0.374852		1.309023		1.914940		0.689155		-11.562577		-8.948866		0.193010		417.459277		280.507289		-0.266060		1.308880		1.926529		0.702247		-19.654376		65.325380		
0.036015		-0.000000		0.000000		0.000000		0.144966		0.000000		0.187903		0.000000		0.000000		-0.000000		-0.000000		-0.000000		0.000000		-0.143518		0.000000		0.238076		-0.000000		0.000000		-0.000000		-19.785999		321.777525		250.034430		0.374839		1.308997		1.914972		0.716594		-11.653898		-9.055560		-0.125170		420.995275		283.732287		-0.266064		1.308867		1.926559		0.677779		-19.966870		65.974557		
0.038439		0.000000		0.000000		-0.000000		0.144966		0.000000		0.187903		0.000000		-0.000000		-0.000000		-0.000000		-0.000000		-0.000000		-0.143518		0.000000		0.238076		-0.000000		0.000000		-0.000000		-20.543032		325.008959		253.543291		0.374823		1.308972		1.915009		0.742729		-11.750634		-9.166807		-0.495757		424.491432		287.135861		-0.266072		1.308857		1.926593		0.657171		-20.308229		66.635567		
0.040864		0.000000		-0.000000		-0.000000		0.144966		0.000000		0.187903		-0.000000		-0.000000		0.000000		-0.000000		-0.000000		-0.000000		-0.143518		0.000000		0.238076		-0.000000		0.000000		-0.000000		-21.235315		328.345482		257.152415		0.374806		1.308954		1.915045		0.766628		-11.853787		-9.283606		-0.921895		427.911752		290.679981		-0.266081		1.308851		1.926632		0.641009		-20.676293		67.301348		
0.043288		0.000000		-0.000000		-0.000000		0.144966		0.000000		0.187903		-0.000000		-0.000000		0.000000		-0.000000		-0.000000		-0.000000		-0.143518		0.000000		0.238076		-0.000000		0.000000		-0.000000		-21.848225		331.776680		260.872125		0.374790		1.308940		1.915080		0.787837		-11.963724		-9.406936		-1.406559		431.225088		294.337837		-0.266093		1.308848		1.926673		0.629306		-21.069118		67.965799		
0.045712		0.000000		-0.000000		-0.000000		0.144966		0.000000		0.187903		-0.000000		-0.000000		0.000000		0.000000		-0.000000		-0.000000		-0.143518		0.000000		0.238076		-0.000000		0.000000		-0.000000		-22.380869		335.280061		264.715612		0.374777		1.308929		1.915112		0.806376		-12.080034		-9.537620		-1.949890		434.409481		298.096949		-0.266105		1.308847		1.926718		0.621374		-21.485047		68.624556		
0.048136		0.000000		-0.000000		-0.000000		0.144966		0.000000		0.187903		-0.000000		-0.000000		0.000000		0.000000		-0.000000		-0.000000		-0.143518		0.000000		0.238076		-0.000000		0.000000		-0.000000		-22.842248		338.823153		268.696321		0.374765		1.308919		1.915140		0.822582		-12.201504		-9.676137		-2.548845		437.455356		301.957700		-0.266117		1.308847		1.926765		0.615881		-21.922782		69.275450		
0.050561		0.000000		-0.000000		-0.000000		0.144966		0.000000		0.187903		-0.000000		-0.000000		0.000000		0.000000		-0.000000		-0.000000		-0.143518		0.000000		0.238076		-0.000000		0.000000		-0.000000		-23.245538		342.366570		272.824664		0.374757		1.308907		1.915166		0.836911		-12.326253		-9.822530		-3.198805		440.365705		305.927963		-0.266126		1.308845		1.926813		0.611068		-22.381553		69.918500		
0.052985		0.000000		-0.000000		-0.000000		0.144966		0.000000		0.187903		-0.000000		-0.000000		0.000000		0.000000		0.000000		0.000000		-0.143518		0.000000		0.238076		0.000000		-0.000000		0.000000		-23.603672		345.867223		277.105218		0.374749		1.308889		1.915190		0.849786		-12.452012		-9.976422		-3.895846		443.152883		310.016600		-0.266134		1.308841		1.926863		0.605108		-22.861276		70.555363		
0.055409		-0.000000		0.000000		0.000000		0.144966		0.000000		0.187903		0.000000		0.000000		-0.000000		0.000000		0.000000		0.000000		-0.143518		0.000000		0.238076		0.000000		-0.000000		0.000000		-23.927884		349.281437		281.534765		0.374742		1.308866		1.915212		0.861560		-12.576419		-10.137095		-4.638279		445.833189		314.228714		-0.266140		1.308833		1.926913		0.596491		-23.362622		71.188388		
0.057833		-0.000000		0.000000		0.000000		0.144966		0.000000		0.187903		0.000000		0.000000		-0.000000		0.000000		0.000000		0.000000		-0.143518		0.000000		0.238076		0.000000		-0.000000		0.000000		-24.228768		352.569161		286.100498		0.374734		1.308837		1.915234		0.872569		-12.697337		-10.303551		-5.426332		448.421292		318.562812		-0.266144		1.308823		1.926965		0.584323		-23.886704		71.819493		
0.060258		-0.000000		0.000000		0.000000		0.144966		0.000000		0.187903		0.000000		0.000000		-0.000000		0.000000		0.000000		0.000000		-0.143518		0.000000		0.238076		0.000000		-0.000000		0.000000		-24.515740		355.694488		290.783770		0.374722		1.308804		1.915256		0.883120		-12.813023		-10.474774		-6.261231		450.923112		323.013276		-0.266149		1.308810		1.927020		0.568420		-24.435026		72.449195		
0.062682		-0.000000		0.000000		0.000000		0.144966		0.000000		0.187903		0.000000		0.000000		-0.000000		-0.000000		0.000000		0.000000		-0.143518		0.000000		0.238076		0.000000		-0.000000		0.000000		-24.796656		358.625617		295.562806		0.374707		1.308770		1.915278		0.893487		-12.922208		-10.649892		-7.143457		453.332968		327.571535		-0.266154		1.308796		1.927079		0.549197		-25.008960		73.076183		
